<svg width="26" height="19" viewBox="0 0 26 19" fill="none" xmlns="http://www.w3.org/2000/svg">
<path d="M2.88889 0C2.12271 0 1.38791 0.304364 0.846136 0.846136C0.304364 1.38791 0 2.12271 0 2.88889L0 15.8889C0 16.6551 0.304364 17.3899 0.846136 17.9316C1.38791 18.4734 2.12271 18.7778 2.88889 18.7778H8.66667V0H2.88889Z" fill="#009A49"/>
<path d="M8.66602 0H17.3327V18.7778H8.66602V0Z" fill="#EEEEEE"/>
<path d="M23.1118 0H17.334V18.7778H23.1118C23.8779 18.7778 24.6127 18.4734 25.1545 17.9316C25.6963 17.3899 26.0007 16.6551 26.0007 15.8889V2.88889C26.0007 2.12271 25.6963 1.38791 25.1545 0.846136C24.6127 0.304364 23.8779 0 23.1118 0Z" fill="#009A49"/>
</svg>
